<?xml version="1.0" standalone="no"?>
<!DOCTYPE svg PUBLIC "-//W3C//DTD SVG 20010904//EN"
 "http://www.w3.org/TR/2001/REC-SVG-20010904/DTD/svg10.dtd">
<svg version="1.0" xmlns="http://www.w3.org/2000/svg"
 width="144.000000pt" height="144.000000pt" viewBox="0 0 144.000000 144.000000"
 preserveAspectRatio="xMidYMid meet">
<metadata>
Created by potrace 1.14, written by Peter Selinger 2001-2017
</metadata>
<g transform="translate(0.000000,144.000000) scale(0.100000,-0.100000)"
fill="#000000" stroke="none">
<path d="M0 720 l0 -720 720 0 720 0 0 720 0 720 -720 0 -720 0 0 -720z m1254
335 c48 -181 89 -336 91 -343 4 -10 -3 -12 -28 -7 -84 19 -100 28 -111 70
l-12 40 -108 28 c-59 16 -110 26 -113 23 -3 -3 20 -100 51 -217 30 -117 54
-214 52 -216 -1 -2 -98 22 -215 53 -117 30 -215 54 -217 51 -3 -2 21 -100 51
-217 31 -116 55 -213 53 -215 -2 -1 -84 19 -183 45 -99 26 -253 67 -343 90
l-163 43 42 44 c24 23 49 43 56 43 11 0 354 -88 415 -106 14 -4 9 24 -31 178
-27 101 -53 199 -59 219 -10 36 -9 38 42 87 l51 50 119 -35 118 -35 27 26 26
26 -32 123 -31 122 46 47 c31 32 48 44 53 35 3 -6 19 -61 34 -120 l28 -108 86
85 85 85 -33 122 -32 122 47 48 c26 27 49 48 50 46 1 -1 41 -150 88 -332z"/>
</g>
</svg>
