<svg xmlns="http://www.w3.org/2000/svg" xmlns:xlink="http://www.w3.org/1999/xlink" width="1000" height="1085.5"><rect width="1000" height="1085.5" rx="0" ry="0" class="a"/><svg height="1085.5" viewBox="0 0 100 108.55" width="1000" xmlns="http://www.w3.org/2000/svg" xmlns:xlink="http://www.w3.org/1999/xlink"><style>.a{fill:#282d35}.e,.f,.g,.h{fill:#b9c0cb;white-space:pre}.f,.g,.h{fill:#71bef2}.g,.h{fill:#a8cc8c}.h{fill:#dbab79}.i{fill:#b9bfca}.i,.j,.k,.l,.m{white-space:pre}.j{fill:#b9c0cb;font-weight:700}.k,.l,.m{fill:#66c2cd}.l,.m{fill:#e88388}.m{font-weight:700}</style><g font-family="Monaco,Consolas,Menlo,'Bitstream Vera Sans Mono','Powerline Symbols',monospace" font-size="1.67"><defs><symbol id="a"><path fill="transparent" d="M0 0h100v51H0z"/></symbol><symbol id="b"><path fill="#6f7683" d="M0 0h1.102v2.171H0z"/></symbol></defs><path class="a" d="M0 0h100v108.55H0z"/><svg width="100"><svg><use xlink:href="#a"/><use xlink:href="#b" x="33.996" y="106.354"/><text y="1.67" class="e">(</text><text x="1.002" y="1.67" class="f">env</text><text x="4.008" y="1.67" class="e">)</text><text x="6.012" y="1.67" class="g">✔</text><text x="8.016" y="1.67" class="h">~/Contentss/Code/Python/api/schemathesis</text><text y="3.841" class="i">[williamhuey@williamhuey]</text><text x="26.052" y="3.841" class="i">15:39</text><text x="32.064" y="3.841" class="e">$</text><text x="34.068" y="3.841" class="e">schemathesis</text><text x="47.094" y="3.841" class="e">run</text><text x="51.102" y="3.841" class="e">http://localhost:3000/api-json</text><text y="6.012" class="j">=================================</text><text x="34.068" y="6.012" class="j">Schemathesis</text><text x="47.094" y="6.012" class="j">test</text><text x="52.104" y="6.012" class="j">session</text><text x="60.12" y="6.012" class="j">starts</text><text x="67.134" y="6.012" class="j">=================================</text><text y="8.183" class="e">platform</text><text x="9.018" y="8.183" class="e">Linux</text><text x="15.03" y="8.183" class="e">--</text><text x="18.036" y="8.183" class="e">Python</text><text x="25.05" y="8.183" class="e">3.9.5,</text><text x="32.064" y="8.183" class="e">schemathesis-3.7.1,</text><text x="52.104" y="8.183" class="e">hypothesis-6.13.6,</text><text x="71.142" y="8.183" class="e">hypothesis_jsonschema-0.19.2,</text><text x="1.002" y="10.354" class="e">jsonschema-3.2.0</text><text y="12.525" class="e">rootdir:</text><text x="9.018" y="12.525" class="e">/home/williamhuey/Contentss/Code/Python/api/schemathesis</text><text y="14.696" class="e">hypothesis</text><text x="11.022" y="14.696" class="e">profile</text><text x="19.038" y="14.696" class="e">&apos;default&apos;</text><text x="29.058" y="14.696" class="e">-&gt;</text><text x="32.064" y="14.696" class="e">database=DirectoryBasedExampleDatabase(&apos;/home/williamhuey/Contentss/</text><text y="16.867" class="e">Code/Python/api/schemathesis/.hypothesis/examples&apos;)</text><text y="19.038" class="e">Schema</text><text x="7.014" y="19.038" class="e">location:</text><text x="17.034" y="19.038" class="e">http://localhost:3000/api-json</text><text y="21.209" class="e">Base</text><text x="5.01" y="21.209" class="e">URL:</text><text x="10.02" y="21.209" class="e">http://localhost:3000/</text><text y="23.38" class="e">Specification</text><text x="14.028" y="23.38" class="e">version:</text><text x="23.046" y="23.38" class="e">Open</text><text x="28.056" y="23.38" class="e">API</text><text x="32.064" y="23.38" class="e">3.0.0</text><text y="25.551" class="e">Workers:</text><text x="9.018" y="25.551" class="e">1</text><text y="27.722" class="j">Collected</text><text x="10.02" y="27.722" class="j">API</text><text x="14.028" y="27.722" class="j">operations:</text><text x="26.052" y="27.722" class="j">6</text><text y="32.064" class="e">GET</text><text x="4.008" y="32.064" class="e">/</text><text x="6.012" y="32.064" class="g">.</text><text x="94.188" y="32.064" class="k">[</text><text x="96.192" y="32.064" class="k">16%]</text><text y="34.235" class="e">POST</text><text x="5.01" y="34.235" class="e">/users</text><text x="12.024" y="34.235" class="g">.</text><text x="94.188" y="34.235" class="k">[</text><text x="96.192" y="34.235" class="k">33%]</text><text y="36.406" class="e">GET</text><text x="4.008" y="36.406" class="e">/users</text><text x="11.022" y="36.406" class="g">.</text><text x="94.188" y="36.406" class="k">[</text><text x="96.192" y="36.406" class="k">50%]</text><text y="38.577" class="e">GET</text><text x="4.008" y="38.577" class="e">/users/{id}</text><text x="16.032" y="38.577" class="g">.</text><text x="94.188" y="38.577" class="k">[</text><text x="96.192" y="38.577" class="k">66%]</text><text y="40.748" class="e">PATCH</text><text x="6.012" y="40.748" class="e">/users/{id}</text><text x="18.036" y="40.748" class="l">F</text><text x="94.188" y="40.748" class="k">[</text><text x="96.192" y="40.748" class="k">83%]</text><text y="42.919" class="e">DELETE</text><text x="7.014" y="42.919" class="e">/users/{id}</text><text x="19.038" y="42.919" class="g">.</text><text x="94.188" y="42.919" class="k">[100%]</text><text y="47.261" class="j">=============================================</text><text x="46.092" y="47.261" class="j">FAILURES</text><text x="55.11" y="47.261" class="j">=============================================</text><text y="49.432" class="m">______________________________________</text><text x="39.078" y="49.432" class="m">PATCH</text><text x="45.09" y="49.432" class="m">/users/{id}</text><text x="57.114" y="49.432" class="m">[P]</text><text x="61.122" y="49.432" class="m">_______________________________________</text><text y="51.603" class="l">1.</text><text x="3.006" y="51.603" class="l">Received</text><text x="12.024" y="51.603" class="l">a</text><text x="14.028" y="51.603" class="l">response</text><text x="23.046" y="51.603" class="l">with</text><text x="28.056" y="51.603" class="l">5xx</text><text x="32.064" y="51.603" class="l">status</text><text x="39.078" y="51.603" class="l">code:</text><text x="45.09" y="51.603" class="l">500</text><text y="55.945" class="l">Path</text><text x="5.01" y="55.945" class="l">parameters</text><text x="16.032" y="55.945" class="l">:</text><text x="18.036" y="55.945" class="l">{&apos;id&apos;:</text><text x="25.05" y="55.945" class="l">&apos;%3A&apos;}</text><text y="58.116" class="l">Headers</text><text x="16.032" y="58.116" class="l">:</text><text x="18.036" y="58.116" class="l">{&apos;User-Agent&apos;:</text><text x="33.066" y="58.116" class="l">&apos;schemathesis/3.7.1&apos;,</text><text x="55.11" y="58.116" class="l">&apos;Accept-Encoding&apos;:</text><text x="74.148" y="58.116" class="l">&apos;gzip,</text><text x="81.162" y="58.116" class="l">deflate&apos;,</text><text x="91.182" y="58.116" class="l">&apos;Accept&apos;:</text><text x="1.002" y="60.287" class="l">&apos;*/*&apos;,</text><text x="8.016" y="60.287" class="l">&apos;Connection&apos;:</text><text x="22.044" y="60.287" class="l">&apos;keep-alive&apos;,</text><text x="36.072" y="60.287" class="l">&apos;Content-Type&apos;:</text><text x="52.104" y="60.287" class="l">&apos;application/json&apos;,</text><text x="72.144" y="60.287" class="l">&apos;Content-Length&apos;:</text><text x="90.18" y="60.287" class="l">&apos;2&apos;}</text><text y="62.458" class="l">Body</text><text x="16.032" y="62.458" class="l">:</text><text x="18.036" y="62.458" class="l">{}</text><text y="66.8" class="l">----------</text><text y="71.142" class="l">Response</text><text x="9.018" y="71.142" class="l">payload:</text><text x="18.036" y="71.142" class="l">`{&quot;statusCode&quot;:500,&quot;message&quot;:&quot;Internal</text><text x="57.114" y="71.142" class="l">server</text><text x="64.128" y="71.142" class="l">error&quot;}`</text><text y="75.484" class="l">Run</text><text x="4.008" y="75.484" class="l">this</text><text x="9.018" y="75.484" class="l">Python</text><text x="16.032" y="75.484" class="l">code</text><text x="21.042" y="75.484" class="l">to</text><text x="24.048" y="75.484" class="l">reproduce</text><text x="34.068" y="75.484" class="l">this</text><text x="39.078" y="75.484" class="l">failure:</text><text x="4.008" y="79.826" class="l">requests.patch(&apos;http://localhost:3000/users/%3A&apos;,</text><text x="54.108" y="79.826" class="l">headers={&apos;User-Agent&apos;:</text><text x="77.154" y="79.826" class="l">&apos;schemathesis/3.7.1&apos;,</text><text x="99.198" y="79.826" class="l">&apos;</text><text y="81.997" class="l">Content-Type&apos;:</text><text x="15.03" y="81.997" class="l">&apos;application/json&apos;,</text><text x="35.07" y="81.997" class="l">&apos;Accept-Encoding&apos;:</text><text x="54.108" y="81.997" class="l">&apos;gzip,</text><text x="61.122" y="81.997" class="l">deflate&apos;,</text><text x="71.142" y="81.997" class="l">&apos;Accept&apos;:</text><text x="81.162" y="81.997" class="l">&apos;*/*&apos;,</text><text x="88.176" y="81.997" class="l">&apos;Connection&apos;</text><text y="84.168" class="l">:</text><text x="2.004" y="84.168" class="l">&apos;keep-alive&apos;,</text><text x="16.032" y="84.168" class="l">&apos;Content-Length&apos;:</text><text x="34.068" y="84.168" class="l">&apos;2&apos;})</text><text y="88.51" class="l">Or</text><text x="3.006" y="88.51" class="l">add</text><text x="7.014" y="88.51" class="l">this</text><text x="12.024" y="88.51" class="l">option</text><text x="19.038" y="88.51" class="l">to</text><text x="22.044" y="88.51" class="l">your</text><text x="27.054" y="88.51" class="l">command</text><text x="35.07" y="88.51" class="l">line</text><text x="40.08" y="88.51" class="l">parameters:</text><text x="52.104" y="88.51" class="l">--hypothesis-seed=339754770879814120019688023261</text><text y="90.681" class="l">789156581</text><text y="92.852" class="j">=============================================</text><text x="46.092" y="92.852" class="j">SUMMARY</text><text x="54.108" y="92.852" class="j">==============================================</text><text y="97.194" class="j">Performed</text><text x="10.02" y="97.194" class="j">checks:</text><text x="4.008" y="99.365" class="e">not_a_server_error</text><text x="42.084" y="99.365" class="e">308</text><text x="46.092" y="99.365" class="e">/</text><text x="48.096" y="99.365" class="e">319</text><text x="52.104" y="99.365" class="e">passed</text><text x="68.136" y="99.365" class="m">FAILED</text><text y="103.707" class="m">===================================</text><text x="36.072" y="103.707" class="m">5</text><text x="38.076" y="103.707" class="m">passed,</text><text x="46.092" y="103.707" class="m">1</text><text x="48.096" y="103.707" class="m">failed</text><text x="55.11" y="103.707" class="m">in</text><text x="58.116" y="103.707" class="m">2.38s</text><text x="64.128" y="103.707" class="m">====================================</text><text y="105.878" class="e">(</text><text x="1.002" y="105.878" class="f">env</text><text x="4.008" y="105.878" class="e">)</text><text x="6.012" y="105.878" class="l">✘-1</text><text x="10.02" y="105.878" class="h">~/Contentss/Code/Python/api/schemathesis</text><text y="108.049" class="i">[williamhuey@williamhuey]</text><text x="26.052" y="108.049" class="i">15:39</text><text x="32.064" y="108.049" class="e">$</text></svg></svg></g></svg></svg>